<?xml version="1.0" encoding="utf-8"?>
<!-- Generator: Adobe Illustrator 23.0.3, SVG Export Plug-In . SVG Version: 6.00 Build 0)  -->
<svg version="1.1" id="Calque_1" xmlns="http://www.w3.org/2000/svg" xmlns:xlink="http://www.w3.org/1999/xlink" x="0px" y="0px"
	 viewBox="0 0 288 142.3" style="enable-background:new 0 0 288 142.3;" xml:space="preserve">
<style type="text/css">
	.st0{fill:#010202;}
</style>
<g>
	<path class="st0" d="M52,69.2L78.8,2.4h25.4L62,107.2H42.2L0,2.4h25.4L52,69.2z"/>
	<path class="st0" d="M186.7,46.8c7.3,6.3,11,15.9,11,28.8c0,13-3.8,22.4-11.3,28.4c-7.6,6-19.1,9-34.6,9h-14v29.2h-23.4V37.4h37
		C167.6,37.4,179.3,40.5,186.7,46.8z M169.5,88c2.8-3.2,4.2-7.7,4.2-13.8c0-6-1.8-10.4-5.5-12.9c-3.7-2.6-9.3-3.8-17-3.8h-13.4v35.2
		h15.8C161.4,92.8,166.7,91.2,169.5,88z"/>
	<path class="st0" d="M236.8,23.3c-2.2,1.9-3.4,4.3-3.4,7.3c0,3.1,1.4,5.5,4.1,7.3c2.7,1.8,9.1,3.9,19,6.4c9.9,2.5,17.7,6.1,23.2,11
		c5.5,4.9,8.2,12.1,8.2,21.5c0,9.4-3.5,17-10.6,22.9c-7,5.9-16.3,8.8-27.8,8.8c-16.6,0-31.6-6.2-44.8-18.5l13.9-17.1
		c11.3,9.9,21.8,14.8,31.4,14.8c4.3,0,7.7-0.9,10.1-2.8c2.4-1.8,3.7-4.3,3.7-7.5c0-3.1-1.3-5.6-3.9-7.5c-2.6-1.8-7.8-3.7-15.4-5.6
		c-12.2-2.9-21.1-6.7-26.8-11.3c-5.7-4.7-8.5-11.9-8.5-21.9c0-9.9,3.6-17.6,10.7-23C227.1,2.7,236,0,246.7,0c7,0,14,1.2,21,3.6
		c7,2.4,13.1,5.8,18.3,10.2l-11.9,17.1c-9.1-6.9-18.5-10.4-28.2-10.4C242.1,20.5,239,21.5,236.8,23.3z"/>
</g>
</svg>
